<?xml version="1.0" encoding="UTF-8"?>
<svg fill="none" viewBox="0 0 32 33" xmlns="http://www.w3.org/2000/svg">
<g clip-path="url(#b)">
<mask id="a" x="0" y="0" width="32" height="33" style="mask-type:alpha" maskUnits="userSpaceOnUse">
<path d="m32 16.5c0-8.8366-7.1634-16-16-16-8.8366 0-16 7.1634-16 16 0 8.8366 7.1634 16 16 16 8.8366 0 16-7.1634 16-16z" fill="#fff"/>
</mask>
<g mask="url(#a)">
<path d="m32 0.5h-32v32h32v-32z" fill="#064061"/>
<path d="m16.164 5.1414c-8.7278 1.3823-14.682 9.5782-13.3 18.306 1.3823 8.7278 9.5782 14.682 18.306 13.3 8.7278-1.3824 14.682-9.5782 13.3-18.306-1.3823-8.7278-9.5782-14.682-18.306-13.3z" fill="#98DAFF"/>
<path d="m7.1273 18.355c0.01543 0.8839 0.49841 1.7235 1.3427 2.3339 0.84428 0.6105 1.9807 0.9419 3.1593 0.9214 1.1785-0.0206 2.3027-0.3915 3.1251-1.0311 0.8225-0.6395 1.2759-1.4954 1.2605-2.3793" fill="#064061"/>
<path d="m8.3984 14.777c-0.00857-0.4908-0.31395-0.8835-0.68208-0.8771s-0.65962 0.4095-0.65105 0.9004c0.00856 0.4908 0.31394 0.8835 0.68208 0.8771 0.36813-0.0064 0.65962-0.4095 0.65105-0.9004z" fill="#064061"/>
<path d="m15.508 14.653c-0.0085-0.4908-0.3139-0.8835-0.682-0.8771-0.3682 0.0064-0.6597 0.4095-0.6511 0.9004 0.0086 0.4908 0.3139 0.8835 0.6821 0.8771 0.3681-0.0064 0.6596-0.4096 0.651-0.9004z" fill="#064061"/>
</g>
</g>
<defs>
<clipPath id="b">
<rect transform="translate(0 .5)" width="32" height="32" fill="#fff"/>
</clipPath>
</defs>
</svg>
